<?xml version="1.0" encoding="UTF-8"?>
<!-- Generated by Pixelmator Pro 3.5.6 -->
<svg width="300" height="324" viewBox="0 0 300 324" xmlns="http://www.w3.org/2000/svg">
    <g id="APP_ICON">
        <path id="Trac" fill="currentColor" stroke="none" d="M 208.229996 116.029999 C 225.550003 133.87001 242.729996 151.020004 267.329987 159.210007 C 267.329987 151.330002 267.329987 144.059998 267.329987 136.430008 C 271.700012 136.430008 275.589996 136.430008 279.839996 136.430008 C 279.839996 165.110001 279.839996 193.699997 279.839996 222.649994 C 275.950012 222.649994 272.040009 222.649994 267.51001 222.649994 C 267.51001 204.600006 267.51001 186.529999 267.51001 167.809998 C 253.009995 171.860001 241.240005 179.029999 231.020004 188.830002 C 221.160004 198.279999 211.850006 208.329987 201.589996 217.320007 C 190.029999 227.459991 175.929993 232.480011 160.710007 234.01001 C 156.970001 234.389984 157 236.26001 157.009995 238.949982 C 157.089996 260.789978 157.110001 282.629974 157.139999 304.459991 C 157.139999 305.449982 157.139999 306.429993 157.139999 307.779999 C 153.059998 307.779999 149.190002 307.779999 144.539993 307.779999 C 144.539993 296.099976 144.5 284.47998 144.550003 272.859985 C 144.600006 261.519989 144.820007 250.190002 144.699997 238.850006 C 144.679993 237.350006 143.229996 234.630005 142.289993 234.559998 C 125.949997 233.410004 111.639999 227.339996 98.559998 216.820007 C 88.970001 226.829987 79.489998 236.600006 70.239998 246.589996 C 69.360001 247.540009 69.720001 249.940002 69.989998 251.579987 C 71.629997 261.47998 66.349998 269.889984 56.950001 272.119995 C 47.939999 274.25 39.16 269.179993 36.73 260.23999 C 34.950001 253.679993 36.919998 247.959991 41.830002 243.480011 C 46.759998 238.980011 52.799999 237.440002 58.959999 240.119995 C 62.48 241.660004 64.129997 240.839996 66.480003 238.339996 C 73.220001 231.179993 80.269997 224.329987 87.18 217.320007 C 88.919998 215.549988 90.550003 213.679993 92.129997 211.959991 C 77.589996 196.889984 64.5 180.62001 45.049999 171.889999 C 41.450001 170.270004 37.740002 168.880005 33.369999 167.090012 C 33.369999 180.51001 33.369999 193.050003 33.369999 205.889984 C 28.860001 205.889984 24.83 205.889984 20.49 205.889984 C 20.49 172.650009 20.49 139.740005 20.49 106.630005 C 24.83 106.630005 28.889999 106.630005 33.34 106.630005 C 33.34 124.100006 33.34 141.230011 33.34 158.669998 C 34.34 158.62001 35.02 158.770004 35.52 158.529999 C 50.52 151.51001 64.900002 143.550003 76.610001 131.5 C 81.139999 126.839996 85.809998 122.309998 90.620003 117.949997 C 104.709999 105.160004 121.150002 97.180008 140.119995 95 C 144.289993 94.520004 145.149994 92.899994 145.080002 89.020004 C 144.710007 67.179993 144.610001 45.350006 144.429993 23.51001 C 144.410004 21.559998 144.429993 19.600006 144.429993 17.23999 C 148.809998 17.23999 152.580002 17.23999 156.940002 17.23999 C 156.940002 42.619995 156.940002 68.190002 156.940002 93.979996 C 173.380005 96.369995 188.800003 100.160004 201.619995 110.559998 C 210.820007 101.490005 219.910004 92.710007 228.699997 83.619995 C 229.809998 82.470001 229.690002 79.690002 229.460007 77.75 C 228.589996 70.529999 230.610001 64.5 236.410004 60.059998 C 241.679993 56.029999 247.509995 55.059998 253.800003 57.670013 C 262.649994 61.339996 266.660004 70.779999 263.029999 79.479996 C 259.220001 88.589996 248.919998 93.440002 240.529999 89.449997 C 236.910004 87.729996 235.110001 88.399994 232.580002 91.100006 C 224.589996 99.589996 216.320007 107.779999 208.229996 116.029999 Z M 202.539993 163.62001 C 202.089996 136.410004 178.080002 113.75 150.160004 114.199997 C 120.279999 114.680008 97.25 137.160004 98.300003 165.949997 C 99.230003 191.590012 119.580002 214.76001 150.740005 214.649994 C 179.649994 214.559998 203 191.340012 202.539993 163.62001 Z"/>
        <path id="path1" fill="currentColor" stroke="none" d="M 249.029999 262.970001 C 244.839996 262.970001 240.910004 262.970001 236.710007 262.970001 C 236.710007 241.75 236.710007 220.76001 236.710007 199.48999 C 240.889999 199.48999 244.660004 199.48999 249.029999 199.48999 C 249.029999 220.480011 249.029999 241.480011 249.029999 262.970001 Z"/>
        <path id="path2" fill="currentColor" stroke="none" d="M 52.119999 71.339996 C 56.400002 71.339996 60.490002 71.339996 64.959999 71.339996 C 64.959999 89.970001 64.959999 108.360001 64.959999 127.050003 C 60.73 127.050003 56.639999 127.050003 52.119999 127.050003 C 52.119999 108.75 52.119999 90.320007 52.119999 71.339996 Z"/>
        <path id="path3" fill="currentColor" stroke="none" d="M 205.050003 233.73999 C 209.669998 233.73999 213.589996 233.73999 217.839996 233.73999 C 217.839996 246.970001 217.839996 259.889984 217.839996 273.25 C 213.710007 273.25 209.520004 273.25 205.050003 273.25 C 205.050003 260.069977 205.050003 247.139984 205.050003 233.73999 Z"/>
        <path id="path4" fill="currentColor" stroke="none" d="M 96.040001 98.5 C 91.589996 98.5 87.529999 98.5 83.139999 98.5 C 83.139999 87.100006 83.139999 76.029999 83.139999 64.540009 C 87.370003 64.540009 91.559998 64.540009 96.040001 64.540009 C 96.040001 75.800003 96.040001 86.869995 96.040001 98.5 Z"/>
        <path id="path5" fill="currentColor" stroke="none" d="M 173.539993 248.100006 C 177.789993 248.100006 181.600006 248.100006 186.210007 248.100006 C 186.460007 256.889984 186.779999 265.619995 186.850006 274.339996 C 186.860001 275.049988 185.199997 276.329987 184.25 276.399994 C 180.789993 276.649994 177.309998 276.5 173.550003 276.5 C 173.539993 266.849976 173.539993 257.529999 173.539993 248.100006 Z"/>
        <path id="path6" fill="currentColor" stroke="none" d="M 114.68 55.51001 C 119.370003 55.51001 123.620003 55.51001 128.169998 55.51001 C 128.169998 64.399994 128.169998 72.979996 128.169998 81.979996 C 123.720001 81.979996 119.360001 81.979996 114.68 81.979996 C 114.68 73.149994 114.68 64.559998 114.68 55.51001 Z"/>
        <path id="path7" fill="currentColor" stroke="none" d="M 115.300003 248.419983 C 119.800003 248.419983 123.739998 248.419983 128.059998 248.419983 C 128.059998 257.839996 128.059998 267.049988 128.059998 276.559998 C 123.779999 276.559998 119.699997 276.559998 115.300003 276.559998 C 115.300003 267.179993 115.300003 257.970001 115.300003 248.419983 Z"/>
        <path id="path8" fill="currentColor" stroke="none" d="M 186.199997 81.970001 C 181.660004 81.970001 177.589996 81.970001 173.210007 81.970001 C 173.210007 73.149994 173.210007 64.589996 173.210007 55.609985 C 177.470001 55.609985 181.660004 55.609985 186.199997 55.609985 C 186.199997 64.309998 186.199997 72.869995 186.199997 81.970001 Z"/>
        <path id="path9" fill="currentColor" stroke="none" d="M 149.949997 200.329987 C 129.809998 200.429993 113.5 184.090012 113.580002 163.900009 C 113.660004 143.770004 129.940002 128.100006 150.729996 128.139999 C 170.130005 128.180008 186.610001 144.230011 187.309998 162.520004 C 188.179993 185.540009 166.949997 201.019989 149.949997 200.329987 Z"/>
    </g>
</svg>
